<?xml version="1.0" encoding="utf-8"?>
<!-- Generator: Adobe Illustrator 16.0.0, SVG Export Plug-In . SVG Version: 6.00 Build 0)  -->
<!DOCTYPE svg PUBLIC "-//W3C//DTD SVG 1.1//EN" "http://www.w3.org/Graphics/SVG/1.1/DTD/svg11.dtd">
<svg version="1.1" id="Layer_1" xmlns="http://www.w3.org/2000/svg" xmlns:xlink="http://www.w3.org/1999/xlink" x="0px" y="0px"
	 width="350px" height="70px" viewBox="0 0 350 70" enable-background="new 0 0 350 70" xml:space="preserve">
<path fill-rule="evenodd" clip-rule="evenodd" d="M176.682,64.723c-5.444,0-10.585-2.26-14.233-6.092v5.196h-5.335V3.974h5.263
	v27.902c3.59-3.707,8.823-5.953,14.311-5.953c1.818,0,3.609,0.25,5.324,0.741c6.865,1.968,13.89,8.901,14.027,18.334
	c0.141,9.598-6.612,16.381-12.943,18.623C181.026,64.352,178.868,64.723,176.682,64.723z M176.621,30.951
	c-3.757,0-7.34,1.516-10.09,4.269c-2.766,2.774-4.287,6.393-4.28,10.192c0.014,7.813,6.462,14.219,14.376,14.281h0.103
	c3.609,0,7.053-1.46,9.702-4.112c2.75-2.754,4.26-6.386,4.256-10.231C190.678,37.545,184.235,30.951,176.621,30.951v-1.455V30.951z"
	/>
<path fill-rule="evenodd" clip-rule="evenodd" d="M160.922,36.244c3.825-6.908,12.766-10.455,20.689-8.182
	c6.757,1.938,12.852,8.572,12.974,16.957c0.123,8.386-5.5,14.937-11.975,17.231c-8.345,2.952-17.437-0.751-21.616-7.971
	c0,2.766,0,5.401,0,8.093c-0.843,0-1.611,0-2.426,0c0-18.965,0-37.935,0-56.945c0.77,0,1.52,0,2.354,0
	C160.922,15.701,160.922,25.973,160.922,36.244z M192.141,45.348c-0.011-8.629-7.083-15.852-15.519-15.852
	c-8.597-0.001-15.841,7.285-15.824,15.918c0.017,8.586,7.132,15.664,15.818,15.729C185.065,61.21,192.152,53.997,192.141,45.348z"/>
<path fill-rule="evenodd" clip-rule="evenodd" d="M127.162,64.702c-5.824,0-10.822-2.406-14.857-7.149
	c-3.268-3.844-4.84-8.986-4.318-14.117c0.546-5.341,3.25-10.161,7.619-13.569c3.209-2.509,7.368-3.888,11.707-3.888
	c5.646,0,10.795,2.201,14.186,5.859v-5.033h5.303V63.83h-5.27v-5.19c-3.278,3.562-7.493,5.572-12.58,5.989
	C128.351,64.678,127.748,64.702,127.162,64.702z M127.59,30.951c-3.756,0-7.338,1.516-10.089,4.269
	c-2.767,2.774-4.288,6.393-4.282,10.192c0.016,7.839,6.462,14.244,14.373,14.281c0,0,0,0,0.001,0c3.7,0,7.167-1.465,9.82-4.123
	c2.741-2.747,4.249-6.376,4.244-10.222c-0.014-7.803-6.454-14.397-14.065-14.397C127.59,30.951,127.59,30.951,127.59,30.951z"/>
<path fill-rule="evenodd" clip-rule="evenodd" d="M142.954,36.6c0-2.839,0-5.564,0-8.341c0.818,0,1.587,0,2.395,0
	c0,11.366,0,22.715,0,34.119c-0.767,0-1.537,0-2.362,0c0-2.712,0-5.415,0-8.12c-3.239,5.369-7.937,8.41-14.152,8.92
	c-6.251,0.511-11.381-1.814-15.423-6.571c-6.156-7.238-5.486-18.906,3.089-25.595C124.934,24.432,138.741,27.297,142.954,36.6z
	 M143.111,45.346c-0.013-8.628-7.086-15.85-15.519-15.85c-8.599-0.001-15.841,7.285-15.826,15.918
	c0.017,8.589,7.16,15.694,15.819,15.729C136.065,61.182,143.125,53.997,143.111,45.346z"/>
<path fill-rule="evenodd" clip-rule="evenodd" d="M337.785,53.836c0,1.15,0.021,2.304-0.018,3.455
	c-0.008,0.202-0.256,0.416-0.425,0.595c-4.113,4.281-9.175,5.871-15.017,5.379c-7.887-0.666-15.039-7.74-16.053-15.429
	c-0.819-6.214,1.074-11.528,5.808-15.673c5.73-5.017,12.255-5.942,19.326-3.327c2.251,0.833,5.053,2.973,6.593,4.867
	c-7.919,7.826-15.842,15.658-23.771,23.491C320.637,63.238,331.132,62.711,337.785,53.836z M312.618,55.658
	c7.3-7.398,14.567-14.763,21.831-22.126c-5.358-4.872-14.73-5.942-21.379,0.822C306.519,41.02,307.729,50.424,312.618,55.658z"/>
<path fill-rule="evenodd" clip-rule="evenodd" d="M301.401,14.337c0,0.754,0,1.402,0,2.008c-1.131,0.225-2.275,0.339-3.342,0.684
	c-4.22,1.363-7.118,5.193-7.166,9.65c-0.073,6.743-0.02,13.487-0.017,20.23c0,0.072,0.024,0.146,0.051,0.3c3.502,0,7.01,0,10.555,0
	c0,0.732,0,1.382,0,2.114c-3.507,0-7.014,0-10.578,0c0,4.383,0,8.685,0,13.047c-0.823,0-1.59,0-2.427,0
	c-0.011-0.229-0.034-0.473-0.034-0.716c0-11.537-0.008-23.072,0.004-34.608c0.006-6.533,4.696-11.775,11.193-12.547
	C300.209,14.432,300.779,14.393,301.401,14.337z"/>
<path fill-rule="evenodd" clip-rule="evenodd" d="M82.618,63.842V27.411c0.001-7.318,4.455-12.774,11.623-14.238
	c0.632-0.129,1.252-0.18,1.851-0.23c0.26-0.021,0.522-0.043,0.789-0.071l1.611-0.176v4.857l-1.179,0.228
	c-0.371,0.071-0.743,0.132-1.115,0.191c-0.729,0.118-1.422,0.228-2.045,0.429c-3.788,1.225-6.16,4.537-6.189,8.645
	c-0.032,4.672-0.023,9.425-0.017,14.022c0.003,1.573,0.006,3.145,0.007,4.717h10.607v4.99H87.976v13.065H82.618z"/>
<path fill-rule="evenodd" clip-rule="evenodd" d="M86.556,47.239c3.528,0,7.021,0,10.551,0c0,0.716,0,1.365,0,2.085
	c-3.51,0-7,0-10.586,0c0,4.383,0,8.702,0,13.064c-0.845,0-1.592,0-2.45,0c0-0.338,0-0.659,0-0.977c0-11.333-0.001-22.667,0-34
	c0.002-6.614,3.972-11.488,10.462-12.814c0.803-0.164,1.637-0.187,2.503-0.281c0,0.769,0,1.419,0,2.038
	c-1.124,0.216-2.264,0.319-3.33,0.663c-4.369,1.413-7.165,5.286-7.198,10.02c-0.044,6.518-0.011,13.032-0.01,19.549
	C86.5,46.782,86.533,46.98,86.556,47.239z"/>
<path fill-rule="evenodd" clip-rule="evenodd" d="M268.764,61.053c0,0.703,0,1.353,0,1.998c-6.194,0.26-11.846-4.385-12.74-10.456
	c-0.133-0.896-0.202-1.813-0.204-2.721c-0.011-14.477-0.007-28.953-0.007-43.428c0-0.326,0-0.649,0-1.015c0.825,0,1.573,0,2.427,0
	c0,0.368,0,0.712,0,1.057c0,14.451,0.001,28.904,0,43.353c0,2.188,0.331,4.293,1.552,6.161c1.946,2.981,4.646,4.727,8.26,4.932
	c0.127,0.007,0.253,0.016,0.378,0.035C268.529,60.984,268.624,61.018,268.764,61.053z"/>
<path fill-rule="evenodd" clip-rule="evenodd" d="M205.395,63.846V26.811h5.273v2.48c2.453-2.12,5.751-3.356,9.072-3.356
	c2.76,0,5.341,0.836,7.468,2.416c0.563,0.417,0.963,1.157,1.022,1.888c0.047,0.596,0.04,1.176,0.033,1.792
	c-0.005,0.243-0.009,0.496-0.009,0.764v3.146c0,0-3.203-2.727-3.408-2.898c-1.633-1.363-3.6-2.114-5.535-2.114
	c-1.357,0-2.645,0.351-3.83,1.044c-3.245,1.894-4.814,4.525-4.803,8.04c0.016,5.018,0.011,10.029,0.009,15.045l-0.004,8.788H205.395
	z"/>
<path fill-rule="evenodd" clip-rule="evenodd" d="M209.229,62.393c-0.835,0-1.583,0-2.379,0c0-11.381,0-22.726,0-34.126
	c0.769,0,1.536,0,2.364,0c0,1.59,0,3.152,0,4.894c0.578-0.731,1.006-1.358,1.519-1.912c3.8-4.105,10.765-5.331,15.608-1.73
	c0.233,0.172,0.417,0.543,0.44,0.835c0.062,0.756,0.021,1.518,0.021,2.443c-0.4-0.341-0.709-0.608-1.025-0.871
	c-3.253-2.717-7.525-3.255-11.027-1.207c-3.521,2.056-5.541,5.082-5.527,9.3c0.024,7.125,0.006,14.248,0.006,21.37
	C209.229,61.711,209.229,62.034,209.229,62.393z"/>
<rect x="238.844" y="26.889" fill-rule="evenodd" clip-rule="evenodd" width="5.263" height="36.957"/>
<path fill-rule="evenodd" clip-rule="evenodd" d="M242.651,62.395c-0.817,0-1.569,0-2.354,0c0-11.357,0-22.676,0-34.051
	c0.788,0,1.553,0,2.354,0C242.651,39.697,242.651,51.016,242.651,62.395z"/>
<path fill-rule="evenodd" clip-rule="evenodd" d="M275.956,28.336c0.778,0,1.521,0,2.316,0c0,11.364,0,22.68,0,34.047
	c-0.755,0-1.505,0-2.316,0C275.956,51.049,275.956,39.717,275.956,28.336z"/>
<path fill-rule="evenodd" clip-rule="evenodd" d="M279.311,17.89c-0.011,1.332-0.752,2.012-2.196,2.017
	c-1.475,0.005-2.222-0.699-2.209-2.077c0.011-1.335,0.748-2.01,2.193-2.014C278.575,15.811,279.322,16.513,279.311,17.89z"/>
<path fill-rule="evenodd" clip-rule="evenodd" d="M241.446,20.074c-2.232,0-3.62-1.34-3.622-3.5c0-1.351,0.548-2.151,1.01-2.586
	c0.645-0.607,1.524-0.916,2.616-0.916h0.081c2.215,0.033,3.59,1.372,3.594,3.497c0.001,2.127-1.373,3.47-3.589,3.504H241.446z"/>
<path fill-rule="evenodd" clip-rule="evenodd" d="M243.671,17.858c0,1.333-0.729,2.027-2.158,2.048
	c-1.458,0.022-2.231-0.687-2.233-2.045c0-1.362,0.77-2.067,2.232-2.046C242.946,15.834,243.67,16.519,243.671,17.858z"/>
<path fill="#00AEEF" d="M43.755,54.621c2.297,1.994,2.289,5.221-0.017,7.208c-2.307,1.988-6.041,1.981-8.338-0.013
	c-2.298-1.995-2.291-5.224,0.017-7.209S41.455,52.625,43.755,54.621z"/>
<g>
	<path fill="#39B54A" d="M19.573,33.554c2.298,1.994,2.29,5.223-0.018,7.209c-2.306,1.984-6.039,1.979-8.336-0.017
		c-2.297-1.992-2.291-5.22,0.017-7.208C13.543,31.553,17.276,31.559,19.573,33.554z"/>
	<path fill="#39B54A" d="M44.089,12.521c2.299,1.996,2.291,5.222-0.017,7.209c-2.305,1.986-6.038,1.981-8.336-0.015
		c-2.298-1.993-2.289-5.222,0.017-7.207C38.059,10.523,41.793,10.528,44.089,12.521z"/>
	<polygon fill="#39B54A" points="44.524,19.294 19.511,40.75 11.236,33.538 36.248,12.083 	"/>
</g>
<g>
	<path fill="#F7941E" d="M31.616,44.128c2.295,1.993,2.289,5.221-0.018,7.209c-2.307,1.984-6.04,1.977-8.335-0.016
		c-2.301-1.993-2.292-5.221,0.015-7.207C25.584,42.129,29.319,42.134,31.616,44.128z"/>
	<polygon fill="#F7941E" points="44.138,40.583 31.583,51.35 23.278,44.115 35.833,33.344 	"/>
	<path fill="#F7941E" d="M44.162,33.366c2.298,1.994,2.29,5.222-0.017,7.208c-2.307,1.987-6.039,1.978-8.336-0.017
		c-2.301-1.993-2.291-5.221,0.015-7.206C38.13,31.366,41.865,31.373,44.162,33.366z"/>
</g>
</svg>
